Coordinates
version=1
nRows=11
nColumns=36
inDegrees=yes

Units are S.I. units (second, meters, Newtons, ...)
If the header above contains a line with 'inDegrees', this indicates whether rotational values are in degrees (yes) or radians (no).

endheader
time	pelvis_tilt	pelvis_list	pelvis_rotation	pelvis_tx	pelvis_ty	pelvis_tz	hip_flexion_r	hip_adduction_r	hip_rotation_r	knee_angle_r	knee_angle_r_beta	ankle_angle_r	subtalar_angle_r	mtp_angle_r	hip_flexion_l	hip_adduction_l	hip_rotation_l	knee_angle_l	knee_angle_l_beta	ankle_angle_l	subtalar_angle_l	mtp_angle_l	lumbar_extension	lumbar_bending	lumbar_rotation	arm_flex_r	arm_add_r	arm_rot_r	elbow_flex_r	pro_sup_r	arm_flex_l	arm_add_l	arm_rot_l	elbow_flex_l	pro_sup_l
      1.48750000	    -23.78794566	     -3.52860458	      5.64444885	     -0.93142770	      1.19981776	     -0.09765883	     40.77777789	     -0.37271377	      1.56712934	     32.44397389	      0.56625417	      6.82014681	    -32.44587182	     -7.49999987	     41.99767541	     -0.20239084	      5.57491992	     32.57083868	      0.56846838	      7.24957497	    -25.01496750	     -7.49999987	    -12.54719150	      3.05294642	     -6.22738013	     -5.50969069	    -21.49785314	     57.74414196	     17.32081356	     45.66843735	    -13.90750763	    -17.75310711	     42.21052334	      9.97525817	     43.84826323
      1.49166670	    -23.74481238	     -3.69012089	      5.47846767	     -0.93126464	      1.20307373	     -0.09728393	     40.63417545	     -0.10863981	      1.42598956	     32.09099839	      0.56009358	      6.67742374	    -32.37475061	     -7.49999987	     42.07661275	     -0.28395120	      5.77518216	     32.71909982	      0.57105602	      6.72946916	    -25.33917262	     -7.49999987	    -13.00643989	      3.15234065	     -6.03358320	     -5.31046021	    -21.34371691	     57.30816102	     16.86403597	     46.45302425	    -13.71225929	    -17.73233748	     41.95676383	      9.93354152	     44.77851152
      1.49583330	    -23.85597252	     -3.87543272	      5.25123990	     -0.93055718	      1.19872639	     -0.09765757	     40.80970450	      0.17757172	      1.36755455	     32.12393579	      0.56066845	      6.76682550	    -32.41532511	     -7.49999987	     42.46989743	     -0.47027872	      5.99649977	     33.27810555	      0.58081251	      6.23129465	    -26.55807146	     -7.49999987	    -13.46043976	      3.19575932	     -5.99038470	     -5.06301166	    -21.17842629	     56.81501685	     16.54967140	     45.76311456	    -13.85864909	    -17.76194505	     41.59602856	     10.26558137	     44.04906844
      1.50000000	    -24.09270080	     -3.99307980	      5.08971818	     -0.93066975	      1.19819635	     -0.09719362	     41.25189080	      0.39495641	      1.15781074	     32.27306498	      0.56327124	      6.47943483	    -32.65831285	     -7.49999987	     43.03858441	     -0.54488984	      6.26535616	     33.85799272	      0.59093345	      5.83525224	    -27.37944295	     -7.49999987	    -13.60540510	      3.21852170	     -6.10766030	     -4.57060125	    -21.04042289	     58.44426235	     15.79360099	     45.38813878	    -13.80648006	    -17.76192231	     43.07212254	     10.36602052	     43.75185114
      1.50416670	    -24.12509173	     -4.17018950	      4.94485484	     -0.93041698	      1.19439385	     -0.09785030	     41.40041888	      0.56579923	      0.90364323	     32.40259656	      0.56553200	      6.66147566	    -32.58551675	     -7.49999987	     43.38724671	     -0.62494745	      6.85689514	     34.53101609	      0.60267992	      5.50923714	    -28.39989171	     -7.49999987	    -13.95369540	      3.45637126	     -6.26154896	     -4.27700001	    -21.06207731	     57.36483591	     15.74145813	     44.77073101	    -13.96878743	    -17.67172670	     42.28510558	     10.83283498	     43.07496936
      1.50833330	    -24.51349873	     -4.21435285	      4.84098253	     -0.93063600	      1.19016357	     -0.09716549	     42.13474827	      0.69043610	      0.99889828	     33.05020077	      0.57683482	      6.84378790	    -32.85058965	     -7.49999987	     44.13984001	     -0.59044362	      7.03861202	     35.18611692	      0.61411359	      5.59071726	    -29.19295445	     -7.49999987	    -13.77449136	      3.42833478	     -6.34261236	     -4.24588915	    -21.12411741	     57.59247173	     15.81300066	     45.69558818	    -13.90310035	    -17.68224876	     42.64347680	     10.76776108	     44.15371303
      1.51250000	    -24.75340471	     -4.26520537	      4.52690881	     -0.92972782	      1.19003781	     -0.09770796	     42.72449209	      0.87974942	      1.12677928	     33.65383073	      0.58737015	      7.11559159	    -32.94022492	     -7.49999987	     44.69437288	     -0.74664288	      6.98456984	     35.88661284	      0.62633955	      5.78243922	    -29.76948932	     -7.49999987	    -13.87900157	      3.43723756	     -6.43982242	     -4.03995118	    -21.27073628	     57.40068265	     15.93829864	     45.82454556	    -13.93642874	    -17.48343739	     42.77377647	     10.72675511	     44.32563512
      1.51666670	    -24.95705409	     -4.35231282	      4.35381401	     -0.92996943	      1.18930270	     -0.09718356	     43.14987530	      1.09128794	      1.26625065	     34.12281887	      0.59555554	      7.27785786	    -33.06706333	     -7.49999987	     45.30510208	     -0.82715035	      7.14139421	     36.65252977	      0.63970732	      6.15045548	    -29.74576706	     -7.49999987	    -14.00021677	      3.48485278	     -6.71075844	     -3.55397837	    -21.17489014	     57.69714626	     15.58599087	     45.82609057	    -13.87504861	    -17.28756563	     43.33076156	     10.38987496	     44.50869618
      1.52083330	    -25.04541463	     -4.26655859	      4.28960436	     -0.92920456	      1.18927108	     -0.09801519	     43.60712032	      0.92164741	      1.14410551	     34.78521196	      0.60711648	      7.40644275	    -33.05933040	     -7.49999987	     45.55775522	     -0.67067265	      7.25235238	     37.12215181	      0.64790377	      6.55688678	    -29.60248089	     -7.49999987	    -14.47136377	      3.44572860	     -6.74638628	     -3.42690668	    -21.26706446	     57.32778216	     15.82773463	     45.67766607	    -13.47679091	    -17.16586067	     43.58151135	     10.46213389	     44.36709585
      1.52500000	    -25.26311474	     -4.08873894	      4.18916298	     -0.92962042	      1.18528395	     -0.09702954	     44.29429682	      0.77286655	      1.18389064	     35.67161150	      0.62258707	      7.70467319	    -33.12257015	     -7.49999987	     46.13078124	     -0.45085616	      7.17256130	     37.71816296	      0.65830613	      7.01389314	    -29.50642473	     -7.49999987	    -14.86171126	      3.26460089	     -6.67996180	     -3.39096803	    -21.26389828	     57.42986054	     15.90559248	     45.64356435	    -13.12765530	    -17.24647223	     43.79235077	     10.84259362	     44.43675669
      1.52916670	    -25.32479881	     -3.97850532	      4.32213868	     -0.92910317	      1.18881658	     -0.09771666	     44.62144780	      0.46634663	      1.05413774	     36.19066827	      0.63164632	      7.72704942	    -33.22853039	     -7.49999987	     46.35893606	     -0.14060997	      7.53455053	     37.95706229	      0.66247571	      7.04504367	    -29.23441726	     -7.49999987	    -15.39449591	      3.22647905	     -6.61817056	     -3.12068020	    -21.07851752	     57.39451133	     15.90177335	     45.58133335	    -12.42671657	    -17.23524499	     43.89154459	     10.76582039	     44.42141084
